<mxfile host="65bd71144e">
    <diagram id="Ps0MvujLuTJmNK5PPKKI" name="Page-1">
        <mxGraphModel dx="697" dy="492" grid="1" gridSize="10" guides="1" tooltips="1" connect="1" arrows="1" fold="1" page="1" pageScale="1" pageWidth="850" pageHeight="1100" math="0" shadow="0">
            <root>
                <mxCell id="0"/>
                <mxCell id="1" parent="0"/>
                <mxCell id="74" value="&lt;h3 style=&quot;line-height: 190%;&quot;&gt;categoria&amp;nbsp;&lt;/h3&gt;" style="swimlane;fontStyle=0;childLayout=stackLayout;horizontal=1;startSize=30;horizontalStack=0;resizeParent=1;resizeParentMax=0;resizeLast=0;collapsible=1;marginBottom=0;whiteSpace=wrap;html=1;fillColor=#0050ef;strokeColor=#001DBC;fontColor=#ffffff;" vertex="1" parent="1">
                    <mxGeometry x="40" y="690" width="170" height="90" as="geometry"/>
                </mxCell>
                <mxCell id="75" value="ID&amp;nbsp; &amp;nbsp; &amp;nbsp; &amp;nbsp; &amp;nbsp; &amp;nbsp; &amp;nbsp; &amp;nbsp; &amp;nbsp; &amp;nbsp; &amp;nbsp; &amp;nbsp; &amp;nbsp; &amp;nbsp; &amp;nbsp; &amp;nbsp; &amp;nbsp; &amp;nbsp; INT PK" style="text;strokeColor=#6F0000;fillColor=#a20025;align=left;verticalAlign=middle;spacingLeft=4;spacingRight=4;overflow=hidden;points=[[0,0.5],[1,0.5]];portConstraint=eastwest;rotatable=0;whiteSpace=wrap;html=1;fontColor=#ffffff;" vertex="1" parent="74">
                    <mxGeometry y="30" width="170" height="30" as="geometry"/>
                </mxCell>
                <mxCell id="76" value="nombre&amp;nbsp; &amp;nbsp; &amp;nbsp; &amp;nbsp; &amp;nbsp; &amp;nbsp; &amp;nbsp; &amp;nbsp; &amp;nbsp; &amp;nbsp; VARCHAR" style="text;strokeColor=none;fillColor=none;align=left;verticalAlign=middle;spacingLeft=4;spacingRight=4;overflow=hidden;points=[[0,0.5],[1,0.5]];portConstraint=eastwest;rotatable=0;whiteSpace=wrap;html=1;fontColor=#FFFFFF;" vertex="1" parent="74">
                    <mxGeometry y="60" width="170" height="30" as="geometry"/>
                </mxCell>
                <mxCell id="84" value="producto" style="swimlane;fontStyle=0;childLayout=stackLayout;horizontal=1;startSize=30;horizontalStack=0;resizeParent=1;resizeParentMax=0;resizeLast=0;collapsible=1;marginBottom=0;whiteSpace=wrap;html=1;shadow=0;fontColor=#ffffff;fillColor=#0050ef;strokeColor=#001DBC;" vertex="1" parent="1">
                    <mxGeometry x="310" y="530" width="160" height="180" as="geometry"/>
                </mxCell>
                <mxCell id="85" value="ID&amp;nbsp; &amp;nbsp; &amp;nbsp; &amp;nbsp; &amp;nbsp; &amp;nbsp; &amp;nbsp; &amp;nbsp; &amp;nbsp; &amp;nbsp; &amp;nbsp; &amp;nbsp; &amp;nbsp; &amp;nbsp; &amp;nbsp; &amp;nbsp;INT&amp;nbsp; PK" style="text;strokeColor=#6F0000;fillColor=#a20025;align=left;verticalAlign=middle;spacingLeft=4;spacingRight=4;overflow=hidden;points=[[0,0.5],[1,0.5]];portConstraint=eastwest;rotatable=0;whiteSpace=wrap;html=1;shadow=0;fontColor=#ffffff;" vertex="1" parent="84">
                    <mxGeometry y="30" width="160" height="30" as="geometry"/>
                </mxCell>
                <mxCell id="86" value="nombre&amp;nbsp; &amp;nbsp; &amp;nbsp; &amp;nbsp; &amp;nbsp; &amp;nbsp; &amp;nbsp; &amp;nbsp; VARCHAR" style="text;strokeColor=none;fillColor=none;align=left;verticalAlign=middle;spacingLeft=4;spacingRight=4;overflow=hidden;points=[[0,0.5],[1,0.5]];portConstraint=eastwest;rotatable=0;whiteSpace=wrap;html=1;shadow=0;fontColor=#FFFFFF;" vertex="1" parent="84">
                    <mxGeometry y="60" width="160" height="30" as="geometry"/>
                </mxCell>
                <mxCell id="87" value="marca&amp;nbsp; &amp;nbsp; &amp;nbsp; &amp;nbsp; &amp;nbsp; &amp;nbsp; &amp;nbsp; &amp;nbsp; &amp;nbsp; &amp;nbsp;VARCHAR" style="text;strokeColor=none;fillColor=none;align=left;verticalAlign=middle;spacingLeft=4;spacingRight=4;overflow=hidden;points=[[0,0.5],[1,0.5]];portConstraint=eastwest;rotatable=0;whiteSpace=wrap;html=1;shadow=0;fontColor=#FFFFFF;" vertex="1" parent="84">
                    <mxGeometry y="90" width="160" height="30" as="geometry"/>
                </mxCell>
                <mxCell id="88" value="categoria_ID&amp;nbsp; &amp;nbsp; &amp;nbsp; &amp;nbsp; &amp;nbsp; &amp;nbsp; &amp;nbsp;INT FK" style="text;strokeColor=#6F0000;fillColor=#a20025;align=left;verticalAlign=middle;spacingLeft=4;spacingRight=4;overflow=hidden;points=[[0,0.5],[1,0.5]];portConstraint=eastwest;rotatable=0;whiteSpace=wrap;html=1;shadow=0;fontColor=#ffffff;" vertex="1" parent="84">
                    <mxGeometry y="120" width="160" height="30" as="geometry"/>
                </mxCell>
                <mxCell id="89" value="precio_unitario&amp;nbsp; &amp;nbsp; &amp;nbsp; &amp;nbsp; &amp;nbsp; &amp;nbsp; &amp;nbsp; &amp;nbsp; INT" style="text;strokeColor=none;fillColor=none;align=left;verticalAlign=middle;spacingLeft=4;spacingRight=4;overflow=hidden;points=[[0,0.5],[1,0.5]];portConstraint=eastwest;rotatable=0;whiteSpace=wrap;html=1;shadow=0;fontColor=#FFFFFF;" vertex="1" parent="84">
                    <mxGeometry y="150" width="160" height="30" as="geometry"/>
                </mxCell>
                <mxCell id="90" value="sucursal" style="swimlane;fontStyle=0;childLayout=stackLayout;horizontal=1;startSize=30;horizontalStack=0;resizeParent=1;resizeParentMax=0;resizeLast=0;collapsible=1;marginBottom=0;whiteSpace=wrap;html=1;shadow=0;fontColor=#ffffff;fillColor=#0050ef;strokeColor=#001DBC;" vertex="1" parent="1">
                    <mxGeometry x="560" y="180" width="140" height="120" as="geometry"/>
                </mxCell>
                <mxCell id="91" value="ID&amp;nbsp; &amp;nbsp; &amp;nbsp; &amp;nbsp; &amp;nbsp; &amp;nbsp; &amp;nbsp; &amp;nbsp; &amp;nbsp; &amp;nbsp; &amp;nbsp; &amp;nbsp; INT&amp;nbsp; PK&amp;nbsp;" style="text;strokeColor=#6F0000;fillColor=#a20025;align=left;verticalAlign=middle;spacingLeft=4;spacingRight=4;overflow=hidden;points=[[0,0.5],[1,0.5]];portConstraint=eastwest;rotatable=0;whiteSpace=wrap;html=1;shadow=0;fontColor=#ffffff;" vertex="1" parent="90">
                    <mxGeometry y="30" width="140" height="30" as="geometry"/>
                </mxCell>
                <mxCell id="92" value="nombre&amp;nbsp; &amp;nbsp; &amp;nbsp; &amp;nbsp; &amp;nbsp; VARCHAR" style="text;strokeColor=none;fillColor=none;align=left;verticalAlign=middle;spacingLeft=4;spacingRight=4;overflow=hidden;points=[[0,0.5],[1,0.5]];portConstraint=eastwest;rotatable=0;whiteSpace=wrap;html=1;shadow=0;fontColor=#FFFFFF;" vertex="1" parent="90">
                    <mxGeometry y="60" width="140" height="30" as="geometry"/>
                </mxCell>
                <mxCell id="93" value="direccion&amp;nbsp; &amp;nbsp; &amp;nbsp; &amp;nbsp;VARCHAR" style="text;strokeColor=none;fillColor=none;align=left;verticalAlign=middle;spacingLeft=4;spacingRight=4;overflow=hidden;points=[[0,0.5],[1,0.5]];portConstraint=eastwest;rotatable=0;whiteSpace=wrap;html=1;shadow=0;fontColor=#FFFFFF;" vertex="1" parent="90">
                    <mxGeometry y="90" width="140" height="30" as="geometry"/>
                </mxCell>
                <mxCell id="94" value="stock" style="swimlane;fontStyle=0;childLayout=stackLayout;horizontal=1;startSize=30;horizontalStack=0;resizeParent=1;resizeParentMax=0;resizeLast=0;collapsible=1;marginBottom=0;whiteSpace=wrap;html=1;shadow=0;fontColor=#ffffff;fillColor=#0050ef;strokeColor=#001DBC;" vertex="1" parent="1">
                    <mxGeometry x="580" y="400" width="140" height="120" as="geometry"/>
                </mxCell>
                <mxCell id="95" value="ID&amp;nbsp; &amp;nbsp; &amp;nbsp; &amp;nbsp; &amp;nbsp; &amp;nbsp; &amp;nbsp; &amp;nbsp; &amp;nbsp; &amp;nbsp; &amp;nbsp; &amp;nbsp; &amp;nbsp; INT PK" style="text;strokeColor=none;fillColor=none;align=left;verticalAlign=middle;spacingLeft=4;spacingRight=4;overflow=hidden;points=[[0,0.5],[1,0.5]];portConstraint=eastwest;rotatable=0;whiteSpace=wrap;html=1;shadow=0;fontColor=#FFFFFF;" vertex="1" parent="94">
                    <mxGeometry y="30" width="140" height="30" as="geometry"/>
                </mxCell>
                <mxCell id="96" value="sucursal_ID&amp;nbsp; &amp;nbsp; &amp;nbsp; &amp;nbsp; INT FK" style="text;strokeColor=#6F0000;fillColor=#a20025;align=left;verticalAlign=middle;spacingLeft=4;spacingRight=4;overflow=hidden;points=[[0,0.5],[1,0.5]];portConstraint=eastwest;rotatable=0;whiteSpace=wrap;html=1;shadow=0;fontColor=#ffffff;" vertex="1" parent="94">
                    <mxGeometry y="60" width="140" height="30" as="geometry"/>
                </mxCell>
                <mxCell id="97" value="producto_ID&amp;nbsp; &amp;nbsp; &amp;nbsp; &amp;nbsp; INT FK" style="text;strokeColor=#6F0000;fillColor=#a20025;align=left;verticalAlign=middle;spacingLeft=4;spacingRight=4;overflow=hidden;points=[[0,0.5],[1,0.5]];portConstraint=eastwest;rotatable=0;whiteSpace=wrap;html=1;shadow=0;fontColor=#ffffff;" vertex="1" parent="94">
                    <mxGeometry y="90" width="140" height="30" as="geometry"/>
                </mxCell>
                <mxCell id="98" value="cliente" style="swimlane;fontStyle=0;childLayout=stackLayout;horizontal=1;startSize=30;horizontalStack=0;resizeParent=1;resizeParentMax=0;resizeLast=0;collapsible=1;marginBottom=0;whiteSpace=wrap;html=1;shadow=0;fontColor=#ffffff;fillColor=#0050ef;strokeColor=#001DBC;" vertex="1" parent="1">
                    <mxGeometry x="425" width="140" height="120" as="geometry"/>
                </mxCell>
                <mxCell id="99" value="ID&amp;nbsp; &amp;nbsp; &amp;nbsp; &amp;nbsp; &amp;nbsp; &amp;nbsp; &amp;nbsp; &amp;nbsp; &amp;nbsp; &amp;nbsp; &amp;nbsp; &amp;nbsp; &amp;nbsp; INT PK" style="text;strokeColor=#6F0000;fillColor=#a20025;align=left;verticalAlign=middle;spacingLeft=4;spacingRight=4;overflow=hidden;points=[[0,0.5],[1,0.5]];portConstraint=eastwest;rotatable=0;whiteSpace=wrap;html=1;shadow=0;fontColor=#ffffff;" vertex="1" parent="98">
                    <mxGeometry y="30" width="140" height="30" as="geometry"/>
                </mxCell>
                <mxCell id="100" value="nombre&amp;nbsp; &amp;nbsp; &amp;nbsp; &amp;nbsp; &amp;nbsp; VARCHAR" style="text;strokeColor=none;fillColor=none;align=left;verticalAlign=middle;spacingLeft=4;spacingRight=4;overflow=hidden;points=[[0,0.5],[1,0.5]];portConstraint=eastwest;rotatable=0;whiteSpace=wrap;html=1;shadow=0;fontColor=#FFFFFF;" vertex="1" parent="98">
                    <mxGeometry y="60" width="140" height="30" as="geometry"/>
                </mxCell>
                <mxCell id="101" value="telefono&amp;nbsp; &amp;nbsp; &amp;nbsp; &amp;nbsp; &amp;nbsp; &amp;nbsp; &amp;nbsp; &amp;nbsp; &amp;nbsp; &amp;nbsp; &amp;nbsp; INT" style="text;strokeColor=none;fillColor=none;align=left;verticalAlign=middle;spacingLeft=4;spacingRight=4;overflow=hidden;points=[[0,0.5],[1,0.5]];portConstraint=eastwest;rotatable=0;whiteSpace=wrap;html=1;shadow=0;fontColor=#FFFFFF;" vertex="1" parent="98">
                    <mxGeometry y="90" width="140" height="30" as="geometry"/>
                </mxCell>
                <mxCell id="102" value="orden" style="swimlane;fontStyle=0;childLayout=stackLayout;horizontal=1;startSize=30;horizontalStack=0;resizeParent=1;resizeParentMax=0;resizeLast=0;collapsible=1;marginBottom=0;whiteSpace=wrap;html=1;shadow=0;fontColor=#ffffff;fillColor=#0050ef;strokeColor=#001DBC;" vertex="1" parent="1">
                    <mxGeometry x="240" y="180" width="140" height="180" as="geometry"/>
                </mxCell>
                <mxCell id="103" value="ID&amp;nbsp; &amp;nbsp; &amp;nbsp; &amp;nbsp; &amp;nbsp; &amp;nbsp; &amp;nbsp; &amp;nbsp; &amp;nbsp; &amp;nbsp; &amp;nbsp; &amp;nbsp; &amp;nbsp; INT PK" style="text;strokeColor=#6F0000;fillColor=#a20025;align=left;verticalAlign=middle;spacingLeft=4;spacingRight=4;overflow=hidden;points=[[0,0.5],[1,0.5]];portConstraint=eastwest;rotatable=0;whiteSpace=wrap;html=1;shadow=0;fontColor=#ffffff;" vertex="1" parent="102">
                    <mxGeometry y="30" width="140" height="30" as="geometry"/>
                </mxCell>
                <mxCell id="104" value="cliente_ID&amp;nbsp; &amp;nbsp; &amp;nbsp; &amp;nbsp; &amp;nbsp; &amp;nbsp; INT FK" style="text;strokeColor=#6F0000;fillColor=#a20025;align=left;verticalAlign=middle;spacingLeft=4;spacingRight=4;overflow=hidden;points=[[0,0.5],[1,0.5]];portConstraint=eastwest;rotatable=0;whiteSpace=wrap;html=1;shadow=0;fontColor=#ffffff;" vertex="1" parent="102">
                    <mxGeometry y="60" width="140" height="30" as="geometry"/>
                </mxCell>
                <mxCell id="105" value="sucursal_ID&amp;nbsp; &amp;nbsp; &amp;nbsp; &amp;nbsp; INT FK" style="text;strokeColor=#6F0000;fillColor=#a20025;align=left;verticalAlign=middle;spacingLeft=4;spacingRight=4;overflow=hidden;points=[[0,0.5],[1,0.5]];portConstraint=eastwest;rotatable=0;whiteSpace=wrap;html=1;shadow=0;fontColor=#ffffff;" vertex="1" parent="102">
                    <mxGeometry y="90" width="140" height="30" as="geometry"/>
                </mxCell>
                <mxCell id="106" value="fecha&amp;nbsp; &amp;nbsp; &amp;nbsp; &amp;nbsp; &amp;nbsp; &amp;nbsp; &amp;nbsp; &amp;nbsp; &amp;nbsp; &amp;nbsp; &amp;nbsp; &amp;nbsp;DATE" style="text;strokeColor=none;fillColor=none;align=left;verticalAlign=middle;spacingLeft=4;spacingRight=4;overflow=hidden;points=[[0,0.5],[1,0.5]];portConstraint=eastwest;rotatable=0;whiteSpace=wrap;html=1;shadow=0;fontColor=#FFFFFF;" vertex="1" parent="102">
                    <mxGeometry y="120" width="140" height="30" as="geometry"/>
                </mxCell>
                <mxCell id="107" value="total&amp;nbsp; &amp;nbsp; &amp;nbsp; &amp;nbsp; &amp;nbsp; &amp;nbsp; &amp;nbsp; &amp;nbsp; &amp;nbsp; &amp;nbsp; &amp;nbsp; &amp;nbsp; &amp;nbsp; &amp;nbsp; &amp;nbsp;INT" style="text;strokeColor=none;fillColor=none;align=left;verticalAlign=middle;spacingLeft=4;spacingRight=4;overflow=hidden;points=[[0,0.5],[1,0.5]];portConstraint=eastwest;rotatable=0;whiteSpace=wrap;html=1;shadow=0;fontColor=#FFFFFF;" vertex="1" parent="102">
                    <mxGeometry y="150" width="140" height="30" as="geometry"/>
                </mxCell>
                <mxCell id="108" value="item" style="swimlane;fontStyle=0;childLayout=stackLayout;horizontal=1;startSize=30;horizontalStack=0;resizeParent=1;resizeParentMax=0;resizeLast=0;collapsible=1;marginBottom=0;whiteSpace=wrap;html=1;shadow=0;fontColor=#ffffff;fillColor=#0050ef;strokeColor=#001DBC;" vertex="1" parent="1">
                    <mxGeometry x="10" y="320" width="140" height="180" as="geometry"/>
                </mxCell>
                <mxCell id="109" value="ID&amp;nbsp; &amp;nbsp; &amp;nbsp; &amp;nbsp; &amp;nbsp; &amp;nbsp; &amp;nbsp; &amp;nbsp; &amp;nbsp; &amp;nbsp; &amp;nbsp; &amp;nbsp; &amp;nbsp; INT PK" style="text;strokeColor=none;fillColor=none;align=left;verticalAlign=middle;spacingLeft=4;spacingRight=4;overflow=hidden;points=[[0,0.5],[1,0.5]];portConstraint=eastwest;rotatable=0;whiteSpace=wrap;html=1;shadow=0;fontColor=#FFFFFF;" vertex="1" parent="108">
                    <mxGeometry y="30" width="140" height="30" as="geometry"/>
                </mxCell>
                <mxCell id="110" value="orden_ID&amp;nbsp; &amp;nbsp; &amp;nbsp; &amp;nbsp; &amp;nbsp; &amp;nbsp; &amp;nbsp;INT FK" style="text;strokeColor=#6F0000;fillColor=#a20025;align=left;verticalAlign=middle;spacingLeft=4;spacingRight=4;overflow=hidden;points=[[0,0.5],[1,0.5]];portConstraint=eastwest;rotatable=0;whiteSpace=wrap;html=1;shadow=0;fontColor=#ffffff;" vertex="1" parent="108">
                    <mxGeometry y="60" width="140" height="30" as="geometry"/>
                </mxCell>
                <mxCell id="111" value="producto_ID&amp;nbsp; &amp;nbsp; &amp;nbsp; &amp;nbsp; INT FK" style="text;strokeColor=#6F0000;fillColor=#a20025;align=left;verticalAlign=middle;spacingLeft=4;spacingRight=4;overflow=hidden;points=[[0,0.5],[1,0.5]];portConstraint=eastwest;rotatable=0;whiteSpace=wrap;html=1;shadow=0;fontColor=#ffffff;" vertex="1" parent="108">
                    <mxGeometry y="90" width="140" height="30" as="geometry"/>
                </mxCell>
                <mxCell id="112" value="cantidad&amp;nbsp; &amp;nbsp; &amp;nbsp; &amp;nbsp; &amp;nbsp; &amp;nbsp; &amp;nbsp; &amp;nbsp; &amp;nbsp; &amp;nbsp; &amp;nbsp;INT" style="text;strokeColor=none;fillColor=none;align=left;verticalAlign=middle;spacingLeft=4;spacingRight=4;overflow=hidden;points=[[0,0.5],[1,0.5]];portConstraint=eastwest;rotatable=0;whiteSpace=wrap;html=1;shadow=0;fontColor=#FFFFFF;" vertex="1" parent="108">
                    <mxGeometry y="120" width="140" height="30" as="geometry"/>
                </mxCell>
                <mxCell id="113" value="monto_venta&amp;nbsp; &amp;nbsp; &amp;nbsp; &amp;nbsp; &amp;nbsp; &amp;nbsp; &amp;nbsp;INT" style="text;strokeColor=none;fillColor=none;align=left;verticalAlign=middle;spacingLeft=4;spacingRight=4;overflow=hidden;points=[[0,0.5],[1,0.5]];portConstraint=eastwest;rotatable=0;whiteSpace=wrap;html=1;shadow=0;fontColor=#FFFFFF;" vertex="1" parent="108">
                    <mxGeometry y="150" width="140" height="30" as="geometry"/>
                </mxCell>
                <mxCell id="118" style="edgeStyle=orthogonalEdgeStyle;html=1;fontColor=#FFFFFF;" edge="1" parent="1" source="99" target="104">
                    <mxGeometry relative="1" as="geometry"/>
                </mxCell>
                <mxCell id="119" style="edgeStyle=orthogonalEdgeStyle;html=1;entryX=0;entryY=0.5;entryDx=0;entryDy=0;fontColor=#FFFFFF;" edge="1" parent="1" source="105" target="91">
                    <mxGeometry relative="1" as="geometry"/>
                </mxCell>
                <mxCell id="128" style="edgeStyle=orthogonalEdgeStyle;html=1;entryX=1;entryY=0.5;entryDx=0;entryDy=0;fontColor=#FFFFFF;" edge="1" parent="1" source="91" target="96">
                    <mxGeometry relative="1" as="geometry">
                        <Array as="points">
                            <mxPoint x="790" y="225"/>
                            <mxPoint x="790" y="475"/>
                        </Array>
                    </mxGeometry>
                </mxCell>
                <mxCell id="131" style="edgeStyle=orthogonalEdgeStyle;html=1;entryX=1;entryY=0.5;entryDx=0;entryDy=0;fontColor=#FFFFFF;" edge="1" parent="1" source="103" target="110">
                    <mxGeometry relative="1" as="geometry">
                        <Array as="points">
                            <mxPoint x="195" y="225"/>
                            <mxPoint x="195" y="395"/>
                        </Array>
                    </mxGeometry>
                </mxCell>
                <mxCell id="133" style="edgeStyle=orthogonalEdgeStyle;html=1;entryX=1;entryY=0.5;entryDx=0;entryDy=0;fontColor=#FFFFFF;" edge="1" parent="1" source="85" target="111">
                    <mxGeometry relative="1" as="geometry"/>
                </mxCell>
                <mxCell id="135" style="edgeStyle=orthogonalEdgeStyle;html=1;entryX=0;entryY=0.5;entryDx=0;entryDy=0;fontColor=#FFFFFF;" edge="1" parent="1" source="75" target="88">
                    <mxGeometry relative="1" as="geometry"/>
                </mxCell>
                <mxCell id="139" value="*" style="text;html=1;strokeColor=none;fillColor=none;align=center;verticalAlign=middle;whiteSpace=wrap;rounded=0;shadow=0;fontFamily=Helvetica;fontSize=11;fontColor=#FFFFFF;" vertex="1" parent="1">
                    <mxGeometry x="160" y="370" width="30" height="30" as="geometry"/>
                </mxCell>
                <mxCell id="147" value="*" style="text;html=1;strokeColor=none;fillColor=none;align=center;verticalAlign=middle;whiteSpace=wrap;rounded=0;shadow=0;fontFamily=Helvetica;fontSize=11;fontColor=#FFFFFF;" vertex="1" parent="1">
                    <mxGeometry x="270" y="640" width="30" height="30" as="geometry"/>
                </mxCell>
                <mxCell id="148" value="*" style="text;html=1;strokeColor=none;fillColor=none;align=center;verticalAlign=middle;whiteSpace=wrap;rounded=0;shadow=0;fontFamily=Helvetica;fontSize=11;fontColor=#FFFFFF;" vertex="1" parent="1">
                    <mxGeometry x="160" y="400" width="30" height="30" as="geometry"/>
                </mxCell>
                <mxCell id="149" value="1" style="text;html=1;strokeColor=none;fillColor=none;align=center;verticalAlign=middle;whiteSpace=wrap;rounded=0;shadow=0;fontFamily=Helvetica;fontSize=11;fontColor=#FFFFFF;" vertex="1" parent="1">
                    <mxGeometry x="280" y="550" width="30" height="30" as="geometry"/>
                </mxCell>
                <mxCell id="150" value="1" style="text;html=1;strokeColor=none;fillColor=none;align=center;verticalAlign=middle;whiteSpace=wrap;rounded=0;shadow=0;fontFamily=Helvetica;fontSize=11;fontColor=#FFFFFF;" vertex="1" parent="1">
                    <mxGeometry x="210" y="200" width="30" height="30" as="geometry"/>
                </mxCell>
                <mxCell id="152" value="1" style="text;html=1;strokeColor=none;fillColor=none;align=center;verticalAlign=middle;whiteSpace=wrap;rounded=0;shadow=0;fontFamily=Helvetica;fontSize=11;fontColor=#FFFFFF;" vertex="1" parent="1">
                    <mxGeometry x="210" y="710" width="30" height="30" as="geometry"/>
                </mxCell>
                <mxCell id="153" value="*" style="text;html=1;strokeColor=none;fillColor=none;align=center;verticalAlign=middle;whiteSpace=wrap;rounded=0;shadow=0;fontFamily=Helvetica;fontSize=11;fontColor=#FFFFFF;" vertex="1" parent="1">
                    <mxGeometry x="720" y="445" width="30" height="30" as="geometry"/>
                </mxCell>
                <mxCell id="154" value="1" style="text;html=1;strokeColor=none;fillColor=none;align=center;verticalAlign=middle;whiteSpace=wrap;rounded=0;shadow=0;fontFamily=Helvetica;fontSize=11;fontColor=#FFFFFF;" vertex="1" parent="1">
                    <mxGeometry x="470" y="550" width="30" height="30" as="geometry"/>
                </mxCell>
                <mxCell id="155" value="1" style="text;html=1;strokeColor=none;fillColor=none;align=center;verticalAlign=middle;whiteSpace=wrap;rounded=0;shadow=0;fontFamily=Helvetica;fontSize=11;fontColor=#FFFFFF;" vertex="1" parent="1">
                    <mxGeometry x="530" y="190" width="30" height="30" as="geometry"/>
                </mxCell>
                <mxCell id="156" value="*" style="text;html=1;strokeColor=none;fillColor=none;align=center;verticalAlign=middle;whiteSpace=wrap;rounded=0;shadow=0;fontFamily=Helvetica;fontSize=11;fontColor=#FFFFFF;" vertex="1" parent="1">
                    <mxGeometry x="380" y="255" width="30" height="30" as="geometry"/>
                </mxCell>
                <mxCell id="157" value="*" style="text;html=1;strokeColor=none;fillColor=none;align=center;verticalAlign=middle;whiteSpace=wrap;rounded=0;shadow=0;fontFamily=Helvetica;fontSize=11;fontColor=#FFFFFF;" vertex="1" parent="1">
                    <mxGeometry x="380" y="225" width="30" height="30" as="geometry"/>
                </mxCell>
                <mxCell id="158" value="1" style="text;html=1;strokeColor=none;fillColor=none;align=center;verticalAlign=middle;whiteSpace=wrap;rounded=0;shadow=0;fontFamily=Helvetica;fontSize=11;fontColor=#FFFFFF;" vertex="1" parent="1">
                    <mxGeometry x="395" y="10" width="30" height="30" as="geometry"/>
                </mxCell>
                <mxCell id="160" style="edgeStyle=elbowEdgeStyle;shape=connector;rounded=1;html=1;entryX=0;entryY=0.5;entryDx=0;entryDy=0;labelBackgroundColor=default;strokeColor=default;fontFamily=Helvetica;fontSize=11;fontColor=#FFFFFF;endArrow=classic;" edge="1" parent="1" source="85" target="97">
                    <mxGeometry relative="1" as="geometry"/>
                </mxCell>
                <mxCell id="161" value="1" style="text;html=1;strokeColor=none;fillColor=none;align=center;verticalAlign=middle;whiteSpace=wrap;rounded=0;shadow=0;fontFamily=Helvetica;fontSize=11;fontColor=#FFFFFF;" vertex="1" parent="1">
                    <mxGeometry x="700" y="195" width="30" height="30" as="geometry"/>
                </mxCell>
                <mxCell id="162" value="*" style="text;html=1;strokeColor=none;fillColor=none;align=center;verticalAlign=middle;whiteSpace=wrap;rounded=0;shadow=0;fontFamily=Helvetica;fontSize=11;fontColor=#FFFFFF;" vertex="1" parent="1">
                    <mxGeometry x="550" y="470" width="30" height="30" as="geometry"/>
                </mxCell>
            </root>
        </mxGraphModel>
    </diagram>
</mxfile>